# xmcd
#
# Track frame offsets:
#	150
#	13770
#	31717
#	43237
#	58020
#	75237
#	93000
#	111362
#
# Disc length: 1692 seconds
#
# Revision: 0
# Processed by: cddbd v1.4PL0 Copyright (c) Steve Scherf et al.
# Submitted via: dBpowerAMP V4.0
#
DISCID=55069a08
DTITLE=Various Artist - Hot Country Mix
DYEAR=1900
DGENRE=Country
TTITLE0=Right Where I Need To Be-Gary Allan
TTITLE1=No Fear-Terry Clark
TTITLE2=I Walk The Line-Johnny Cash
TTITLE3=I Do (Cherish You)-Mark Wills
TTITLE4=Shut Up And Drive-Chely Wright
TTITLE5=Think It Over-Allison Moorer
TTITLE6=I Don't Want To Miss A Thing-Mark Chesnutt
TTITLE7=Walking Away A Winner-Kathy Mattea
EXTD=Hot Country Mix [CD Sampler Country Weekly)
EXTT0=
EXTT1=
EXTT2=
EXTT3=
EXTT4=
EXTT5=
EXTT6=
EXTT7=
PLAYORDER=
